# xmcd CD database file
#
# Track frame offsets:
#	150
#	15717
#	31800
#	43161
#	63587
#	76884
#	89577
#	103882
#	117348
#	131852
#	148096
#	170827
#	189792
#	204996
#	219495
#	241254
#	251885
#	263846
#	280071
#	294964
#
# Disc length: 4075 seconds
#
# Revision: 0
# Processed by: cddbd v1.5.2PL0 Copyright (c) Steve Scherf et al.
# Submitted via: CDex 1.51
#
DISCID=2d0fe914
DTITLE=ruzni - 100 nej country 4
DYEAR=2002
DGENRE=Country
TTITLE0=Biblickou krajinou
TTITLE1=Pojd me krasne hrat
TTITLE2=Hardy
TTITLE3=Modra z dzin
TTITLE4=kdyz se cas naplnil
TTITLE5=Zradny banjo
TTITLE6=Tommy
TTITLE7=Jaro
TTITLE8=Pisen v sedle
TTITLE9=Zatoka
TTITLE10=Tisic mil
TTITLE11=Bajecna zenska
TTITLE12=Sbohem kapitane
TTITLE13=Ja si jen tak litam
TTITLE14=Divka z rocky mountain
TTITLE15=Tak ja jdu dal
TTITLE16=Bodlaky ve vlasech
TTITLE17=Pveste ho vejs
TTITLE18=V prave poledne
TTITLE19=Vejplata
EXTD=YEAR: 2002
EXTT0=
EXTT1=
EXTT2=
EXTT3=
EXTT4=
EXTT5=
EXTT6=
EXTT7=
EXTT8=
EXTT9=
EXTT10=
EXTT11=
EXTT12=
EXTT13=
EXTT14=
EXTT15=
EXTT16=
EXTT17=
EXTT18=
EXTT19=
PLAYORDER=
